<?xml version="1.0" encoding="utf-8"?>
<!-- Generator: Adobe Illustrator 25.3.1, SVG Export Plug-In . SVG Version: 6.00 Build 0)  -->
<svg version="1.1" xmlns="http://www.w3.org/2000/svg" xmlns:xlink="http://www.w3.org/1999/xlink" x="0px" y="0px"
	 viewBox="0 0 1920 1080" style="enable-background:new 0 0 1920 1080;" xml:space="preserve">
<style type="text/css">
	.st0{fill:#FFFFFF;stroke:#1D1D1B;stroke-width:15.0732;stroke-miterlimit:10;}
	.st1{fill:#63530E;}
	.st2{fill:#FFFFFF;}
	.st3{fill:#7C2C2C;}
	.st4{fill:#1D1D1B;}






#pupilas{
	transform: translate (0, 0);
	animation: moverOjos 1.6s linear infinite alternate;
}

@keyframes moverOjos {
	from {
    transform: translate(0, 0);
	}

	to {
    transform: translate(-9em,0);
	}
}

#brillos {
		transform: translate (0, 0);
	animation: moverBrillos 1.6s linear infinite alternate;
}

@keyframes moverBrillos {
	from {
    transform: translate(0, 0);
	}

	to {
    transform: translate(-8em,0);
	}
}




#cejas_2_ {
	transform: translate (0, 0);
	animation: moverCejas 0.8s linear infinite alternate;
}

@keyframes moverCejas {
	from {
    transform: translate(0, 0);
	}

	to {
    transform: translate(0, 3.5em);
	}
}


</style>



<g id="ojos_2_">
	<g id="ojos_1_">
		<g id="ojos">
			<path class="st0" d="M338.65,543.41c0,0,31.24-203.32,237.37-189.89s211.97,193.86,211.97,193.86s40.7,274.18-188.23,275.87
				S331.86,706.21,338.65,543.41z"/>
			<path class="st0" d="M1093.99,543.41c0,0,31.24-203.32,237.37-189.89s211.97,193.86,211.97,193.86s40.7,274.18-188.23,275.87
				S1087.2,706.21,1093.99,543.41z"/>
		</g>
	</g>
</g>
<g id="pupilas">
	<g id="pupilas_1_">
		<circle class="st1" cx="661.2" cy="583.31" r="116.53"/>
		<circle class="st1" cx="1416.54" cy="583.31" r="116.53"/>
	</g>
</g>
<g id="brillos">
	<g id="brillo">
		
			<ellipse transform="matrix(0.089 -0.996 0.996 0.089 806.5607 1877.5864)" class="st2" cx="1429.7" cy="497.87" rx="20.35" ry="47.48"/>
		<ellipse class="st2" cx="1359.62" cy="508.95" rx="16.9" ry="13.54"/>
		
			<ellipse transform="matrix(0.089 -0.996 0.996 0.089 118.5179 1125.1469)" class="st2" cx="674.34" cy="497.78" rx="20.35" ry="47.48"/>
		<ellipse class="st2" cx="604.28" cy="508.95" rx="16.9" ry="13.54"/>
	</g>
</g>
<g id="gafas_2_">
	<g id="gafas_1_">
		<g id="gafas">
			<path class="st3" d="M1098.97,365.29c-52.06,11.73-144.91,17.32-157.58,18.04c-12.66-0.72-105.51-6.31-157.58-18.04
				c-55.97-12.61-271.84-69.67-595.94-5.48v109.23c0,0,48.92,76.67,56.09,97.42c8.73,25.27,39.12,170.58,59.07,204.34
				c19.95,33.75,66.47,88.19,139.61,99.73c81.65,12.86,196.32,17.64,253.18,0c42.19-13.1,149.22-101.66,167.25-204.07
				C882,558.9,881.48,482.33,895.29,473.14c12.86-8.58,31.04-19.81,44.64-18.83v0.41c0.47-0.11,0.97-0.15,1.46-0.22
				c0.49,0.07,0.99,0.11,1.46,0.22v-0.41c13.6-0.98,31.79,10.25,44.64,18.83c13.82,9.19,13.3,85.77,32.22,193.32
				c18.02,102.41,125.06,190.98,167.25,204.07c56.86,17.64,171.53,12.86,253.18,0c73.14-11.54,119.66-65.99,139.61-99.73
				c19.95-33.76,50.34-179.07,59.07-204.34c7.17-20.75,56.09-97.42,56.09-97.42V359.81
				C1370.81,295.61,1154.95,352.67,1098.97,365.29z M827.62,649.68c-22.91,76.66-77.66,141.37-138.39,173.22
				c-60.74,31.85-174.23,16.93-230.55,10.6c-94.79-11.49-137.89-110.59-137.89-110.59c-22.26-37.01-45.74-139.61-45.74-139.61
				l4.99-159.64c74.66-59.72,198.11-54.75,360.4-53.76c162.27,1,208.08,103.55,208.08,103.55
				C860.46,520.25,827.62,649.68,827.62,649.68z M1562.01,722.92c0,0-43.09,99.1-137.89,110.59
				c-56.32,6.33-169.81,21.25-230.55-10.6c-60.73-31.85-115.48-96.57-138.39-173.22c0,0-32.84-129.43-20.9-176.22
				c0,0,45.81-102.55,208.08-103.55c162.29-0.99,285.74-5.96,360.4,53.76l4.99,159.64C1607.75,583.31,1584.26,685.91,1562.01,722.92
				z"/>
		</g>
	</g>
</g>
<g id="cejas_2_">
	<g id="cejas_1_">
		<g id="cejas">
			<g>
				<path class="st4" d="M285.1,263.9c7.7-7.7,16.09-14.67,24.68-21.37c8.6-6.7,17.53-12.97,26.66-18.98
					c18.3-11.94,37.55-22.53,57.52-31.73c2.49-1.16,5.01-2.26,7.53-3.36c2.51-1.12,5.05-2.2,7.59-3.25c2.53-1.09,5.1-2.09,7.67-3.08
					c2.57-1,5.14-2,7.73-2.94c10.33-3.88,20.87-7.26,31.53-10.29s21.48-5.55,32.4-7.65c5.45-1.08,10.96-1.92,16.46-2.79l8.29-1.09
					c2.76-0.36,5.55-0.6,8.32-0.9c11.11-1.05,22.28-1.64,33.47-1.63c11.19,0.07,22.39,0.65,33.52,1.85
					c22.26,2.48,44.29,7.3,65.35,14.73c2.62,0.95,5.25,1.88,7.86,2.87c2.6,1,5.16,2.11,7.74,3.16l3.85,1.6l3.8,1.73
					c2.53,1.16,5.05,2.32,7.54,3.54c9.94,4.95,19.59,10.4,28.84,16.4c1.17,0.73,2.31,1.5,3.44,2.29l3.4,2.35l3.39,2.35
					c0.56,0.39,1.13,0.77,1.69,1.18l1.64,1.25l6.54,4.99c1.09,0.82,2.17,1.66,3.21,2.56l3.15,2.64c8.45,6.94,16.3,14.56,23.72,22.47
					c-18.71-11.08-37.44-21.36-56.84-29.78l-7.28-3.1c-1.2-0.53-2.42-1.02-3.66-1.48l-3.68-1.42c-4.87-1.97-9.83-3.67-14.75-5.42
					c-9.94-3.27-19.9-6.31-30-8.73l-1.88-0.49l-1.9-0.42l-3.8-0.84l-3.79-0.84c-1.26-0.28-2.55-0.48-3.82-0.73
					c-2.55-0.46-5.08-1.01-7.62-1.46l-7.66-1.23c-10.24-1.43-20.49-2.69-30.8-3.27s-20.63-0.82-30.95-0.63l-7.75,0.23
					c-2.58,0.08-5.16,0.28-7.74,0.41c-2.58,0.1-5.16,0.32-7.74,0.52s-5.16,0.39-7.73,0.68c-10.31,0.95-20.6,2.36-30.85,4.09
					c-10.26,1.71-20.47,3.79-30.65,6.1c-10.19,2.32-20.28,5.08-30.38,7.96c-2.53,0.71-5.03,1.48-7.54,2.26l-3.77,1.16l-3.76,1.2
					c-2.51,0.78-5.02,1.58-7.52,2.42c-2.5,0.82-5,1.65-7.49,2.54c-19.95,6.85-39.67,14.7-59.2,23.27
					C323.56,244.39,304.24,253.68,285.1,263.9z"/>
			</g>
			<g>
				<path class="st4" d="M1054.55,263.9c7.7-7.7,16.09-14.67,24.68-21.37c8.6-6.7,17.53-12.97,26.66-18.98
					c18.3-11.94,37.55-22.53,57.52-31.73c2.49-1.16,5.01-2.26,7.53-3.36c2.51-1.12,5.05-2.2,7.59-3.25c2.53-1.09,5.1-2.09,7.67-3.08
					c2.57-1,5.14-2,7.73-2.94c10.33-3.88,20.87-7.26,31.53-10.29s21.48-5.55,32.4-7.65c5.45-1.08,10.96-1.92,16.46-2.79l8.29-1.09
					c2.76-0.36,5.55-0.6,8.32-0.9c11.11-1.05,22.28-1.64,33.47-1.63c11.19,0.07,22.39,0.65,33.52,1.85
					c22.26,2.48,44.29,7.3,65.35,14.73c2.62,0.95,5.25,1.88,7.86,2.87c2.6,1,5.16,2.11,7.74,3.16l3.85,1.6l3.8,1.73
					c2.53,1.16,5.05,2.32,7.54,3.54c9.94,4.95,19.59,10.4,28.84,16.4c1.17,0.73,2.31,1.5,3.44,2.29l3.4,2.35l3.39,2.35
					c0.56,0.39,1.13,0.77,1.69,1.18l1.64,1.25l6.54,4.99c1.09,0.82,2.17,1.66,3.21,2.56l3.15,2.64c8.45,6.94,16.3,14.56,23.72,22.47
					c-18.71-11.08-37.44-21.36-56.84-29.78l-7.28-3.1c-1.2-0.53-2.42-1.02-3.66-1.48l-3.68-1.42c-4.87-1.97-9.83-3.67-14.75-5.42
					c-9.94-3.27-19.9-6.31-30-8.73l-1.88-0.49l-1.9-0.42l-3.8-0.84l-3.79-0.84c-1.26-0.28-2.55-0.48-3.82-0.73
					c-2.55-0.46-5.08-1.01-7.62-1.46l-7.66-1.23c-10.24-1.43-20.49-2.69-30.8-3.27s-20.63-0.82-30.95-0.63l-7.75,0.23
					c-2.58,0.08-5.16,0.28-7.74,0.41c-2.58,0.1-5.16,0.32-7.74,0.52s-5.16,0.39-7.73,0.68c-10.31,0.95-20.6,2.36-30.85,4.09
					c-10.26,1.71-20.47,3.79-30.65,6.1c-10.19,2.32-20.28,5.08-30.38,7.96c-2.53,0.71-5.03,1.48-7.54,2.26l-3.77,1.16l-3.76,1.2
					c-2.51,0.78-5.02,1.58-7.52,2.42c-2.5,0.82-5,1.65-7.49,2.54c-19.95,6.85-39.67,14.7-59.2,23.27
					C1093.01,244.39,1073.69,253.68,1054.55,263.9z"/>
			</g>
		</g>
	</g>
</g>
</svg>
